<svg width="28px" height="28px" viewBox="0 0 24 24" fill="none" xmlns="http://www.w3.org/2000/svg">
<path d="M12 16.49C11.8011 16.49 11.6103 16.411 11.4697 16.2703C11.329 16.1297 11.25 15.9389 11.25 15.74V7.73999C11.25 7.54108 11.329 7.35031 11.4697 7.20966C11.6103 7.06901 11.8011 6.98999 12 6.98999C12.1989 6.98999 12.3897 7.06901 12.5303 7.20966C12.671 7.35031 12.75 7.54108 12.75 7.73999V15.74C12.75 15.9389 12.671 16.1297 12.5303 16.2703C12.3897 16.411 12.1989 16.49 12 16.49Z" fill="black"/>
<path d="M16 12.49H8.00001C7.81729 12.4688 7.64874 12.3812 7.5264 12.2438C7.40406 12.1065 7.33646 11.9289 7.33646 11.745C7.33646 11.5611 7.40406 11.3835 7.5264 11.2462C7.64874 11.1088 7.81729 11.0212 8.00001 11H16C16.1989 11 16.3897 11.079 16.5303 11.2197C16.671 11.3603 16.75 11.5511 16.75 11.75C16.75 11.9489 16.671 12.1397 16.5303 12.2803C16.3897 12.421 16.1989 12.5 16 12.5V12.49Z" fill="black"/>
<path d="M12 21.44C11.8667 21.441 11.7355 21.4065 11.62 21.34L3.87 16.87C3.75818 16.802 3.66552 16.7067 3.60078 16.5929C3.53604 16.4792 3.50136 16.3509 3.5 16.22V7.27C3.49838 7.13855 3.53181 7.00905 3.59684 6.89481C3.66187 6.78057 3.75616 6.68571 3.87 6.62L11.62 2.14C11.7346 2.07607 11.8637 2.04251 11.995 2.04251C12.1263 2.04251 12.2554 2.07607 12.37 2.14L20.12 6.62C20.2364 6.68359 20.3333 6.7777 20.4003 6.89223C20.4672 7.00675 20.5017 7.13735 20.5 7.27V16.27C20.4986 16.402 20.4628 16.5314 20.3962 16.6454C20.3295 16.7593 20.2343 16.854 20.12 16.92L12.37 21.39C12.2536 21.4403 12.1256 21.4577 12 21.44ZM5 15.78L12 19.78L19 15.78V7.7L12 3.7L5 7.7V15.78Z" fill="black"/>
</svg>
